<svg width="124" height="119" viewBox="0 0 124 119" fill="none" xmlns="http://www.w3.org/2000/svg">
<g filter="url(#filter0_d_0_101)">
<path fill-rule="evenodd" clip-rule="evenodd" d="M80.9788 9.92313C82.8009 7.24856 86.3942 6.4273 89.2098 8.04202L92.6326 10.0049C95.4482 11.6195 96.5288 15.121 95.1079 18.0257C92.3458 23.6722 97.2562 30.0285 103.462 28.8398C106.655 28.2284 109.78 30.1714 110.621 33.2908L111.645 37.0826C112.486 40.202 110.758 43.4369 107.685 44.4929C101.712 46.5456 100.659 54.4888 105.894 58.0071C108.586 59.817 109.413 63.3861 107.787 66.1828L105.811 69.5825C104.186 72.3792 100.66 73.4526 97.7359 72.0412C92.0513 69.2977 85.652 74.1751 86.8487 80.3392C87.4643 83.5102 85.5081 86.6145 82.3677 87.4503L78.55 88.4665C75.4096 89.3023 72.1528 87.5853 71.0898 84.5335C69.0232 78.6007 61.026 77.555 57.484 82.7543C55.6618 85.4288 52.0687 86.25 49.253 84.6353L45.8303 82.6724C43.0146 81.0578 41.9339 77.5563 43.3548 74.6516C46.1169 69.0052 41.2067 62.6489 35.0007 63.8375C31.8083 64.449 28.6829 62.5059 27.8415 59.3866L26.8186 55.5947C25.977 52.4753 27.7056 49.2404 30.7781 48.1844C36.751 46.1317 37.8038 38.1885 32.5694 34.6702C29.8767 32.8603 29.0499 29.2913 30.6755 26.4946L32.6517 23.0949C34.2773 20.2982 37.8025 19.2247 40.7268 20.6361C46.4116 23.3796 52.8108 18.5024 51.6141 12.3381C50.9985 9.16715 52.9547 6.06278 56.0952 5.22698L59.9128 4.21097C63.0533 3.37506 66.31 5.09201 67.3731 8.14392C69.4397 14.0766 77.4367 15.1223 80.9788 9.92313ZM65.1507 56.4368C70.3377 59.4115 76.9703 57.6462 79.965 52.4941C82.9598 47.342 81.1825 40.7539 75.9955 37.7792C70.8085 34.8047 64.1759 36.57 61.1811 41.7221C58.1864 46.8742 59.9637 53.4623 65.1507 56.4368Z" fill="url(#paint0_linear_0_101)"/>
<g filter="url(#filter1_dd_0_101)">
<path fill-rule="evenodd" clip-rule="evenodd" d="M43.7221 26.2027C43.9538 22.9814 46.6522 20.4858 49.9034 20.4858H53.8557C57.1069 20.4858 59.8053 22.9814 60.0369 26.2027C60.4873 32.4644 67.9394 35.5305 72.7155 31.4189C75.1724 29.3039 78.8571 29.4345 81.1561 31.718L83.9508 34.4939C86.2498 36.7774 86.3812 40.4374 84.2519 42.8778C80.1125 47.6218 83.1993 55.0238 89.5034 55.4711C92.7465 55.7012 95.259 58.3815 95.259 61.6108V65.5366C95.259 68.7659 92.7465 71.4462 89.5034 71.6763C83.1993 72.1236 80.1127 79.5256 84.2519 84.2696C86.3812 86.71 86.2498 90.3699 83.9509 92.6535L81.1561 95.4296C78.8572 97.7133 75.1725 97.8437 72.7156 95.728C67.9394 91.6169 60.4873 94.6832 60.0369 100.945C59.8053 104.166 57.1069 106.662 53.8557 106.662H49.9034C46.6522 106.662 43.9538 104.166 43.7221 100.945C43.2717 94.6832 35.8197 91.6169 31.0436 95.728C28.5867 97.8437 24.9019 97.7133 22.6029 95.4296L19.8083 92.6535C17.5093 90.3699 17.3778 86.71 19.5071 84.2696C23.6465 79.5256 20.5597 72.1236 14.2556 71.6763C11.0125 71.4462 8.5 68.7659 8.5 65.5366V61.6108C8.5 58.3815 11.0125 55.7012 14.2556 55.4711C20.5597 55.0238 23.6465 47.6218 19.5072 42.8778C17.3778 40.4374 17.5093 36.7774 19.8083 34.4939L22.6029 31.718C24.9019 29.4345 28.5867 29.3039 31.0436 31.4189C35.8197 35.5305 43.2717 32.4644 43.7221 26.2027ZM53.4288 74.3457C59.4182 74.3457 64.2737 69.5229 64.2737 63.5737C64.2737 57.6244 59.4182 52.8017 53.4288 52.8017C47.4393 52.8017 42.5839 57.6244 42.5839 63.5737C42.5839 69.5229 47.4393 74.3457 53.4288 74.3457Z" fill="#C4C2C2" fill-opacity="0.7"/>
</g>
<g filter="url(#filter2_d_0_101)">
<path fill-rule="evenodd" clip-rule="evenodd" d="M53.4289 91.2732C68.8303 91.2732 81.3157 78.8718 81.3157 63.5739C81.3157 48.2759 68.8303 35.8745 53.4289 35.8745C38.0274 35.8745 25.5421 48.2759 25.5421 63.5739C25.5421 78.8718 38.0274 91.2732 53.4289 91.2732ZM53.4289 74.3458C59.4184 74.3458 64.2737 69.523 64.2737 63.5739C64.2737 57.6246 59.4184 52.8019 53.4289 52.8019C47.4394 52.8019 42.584 57.6246 42.584 63.5739C42.584 69.523 47.4394 74.3458 53.4289 74.3458Z" fill="url(#paint1_linear_0_101)"/>
</g>
<g filter="url(#filter3_dd_0_101)">
<path fill-rule="evenodd" clip-rule="evenodd" d="M53.4286 82.04C63.6962 82.04 72.0199 73.7724 72.0199 63.5737C72.0199 53.3751 63.6962 45.1075 53.4286 45.1075C43.161 45.1075 34.8374 53.3751 34.8374 63.5737C34.8374 73.7724 43.161 82.04 53.4286 82.04ZM53.4286 74.3457C59.4181 74.3457 64.2735 69.523 64.2735 63.5737C64.2735 57.6246 59.4181 52.8018 53.4286 52.8018C47.4392 52.8018 42.5838 57.6246 42.5838 63.5737C42.5838 69.523 47.4392 74.3457 53.4286 74.3457Z" fill="white" fill-opacity="0.6"/>
</g>
</g>
<defs>
<filter id="filter0_d_0_101" x="4.5" y="0" width="119.357" height="118.662" filterUnits="userSpaceOnUse" color-interpolation-filters="sRGB">
<feFlood flood-opacity="0" result="BackgroundImageFix"/>
<feColorMatrix in="SourceAlpha" type="matrix" values="0 0 0 0 0 0 0 0 0 0 0 0 0 0 0 0 0 0 127 0" result="hardAlpha"/>
<feOffset dx="4" dy="4"/>
<feGaussianBlur stdDeviation="4"/>
<feColorMatrix type="matrix" values="0 0 0 0 0.556863 0 0 0 0 0.556863 0 0 0 0 0.556863 0 0 0 0.4 0"/>
<feBlend mode="normal" in2="BackgroundImageFix" result="effect1_dropShadow_0_101"/>
<feBlend mode="normal" in="SourceGraphic" in2="effect1_dropShadow_0_101" result="shape"/>
</filter>
<filter id="filter1_dd_0_101" x="0.5" y="16.4858" width="102.759" height="102.176" filterUnits="userSpaceOnUse" color-interpolation-filters="sRGB">
<feFlood flood-opacity="0" result="BackgroundImageFix"/>
<feColorMatrix in="SourceAlpha" type="matrix" values="0 0 0 0 0 0 0 0 0 0 0 0 0 0 0 0 0 0 127 0" result="hardAlpha"/>
<feOffset/>
<feGaussianBlur stdDeviation="2"/>
<feComposite in2="hardAlpha" operator="out"/>
<feColorMatrix type="matrix" values="0 0 0 0 1 0 0 0 0 1 0 0 0 0 1 0 0 0 1 0"/>
<feBlend mode="normal" in2="BackgroundImageFix" result="effect1_dropShadow_0_101"/>
<feColorMatrix in="SourceAlpha" type="matrix" values="0 0 0 0 0 0 0 0 0 0 0 0 0 0 0 0 0 0 127 0" result="hardAlpha"/>
<feOffset dy="4"/>
<feGaussianBlur stdDeviation="4"/>
<feComposite in2="hardAlpha" operator="out"/>
<feColorMatrix type="matrix" values="0 0 0 0 1 0 0 0 0 1 0 0 0 0 1 0 0 0 1 0"/>
<feBlend mode="normal" in2="effect1_dropShadow_0_101" result="effect2_dropShadow_0_101"/>
<feBlend mode="normal" in="SourceGraphic" in2="effect2_dropShadow_0_101" result="shape"/>
</filter>
<filter id="filter2_d_0_101" x="17.5421" y="27.8745" width="71.7736" height="71.3987" filterUnits="userSpaceOnUse" color-interpolation-filters="sRGB">
<feFlood flood-opacity="0" result="BackgroundImageFix"/>
<feColorMatrix in="SourceAlpha" type="matrix" values="0 0 0 0 0 0 0 0 0 0 0 0 0 0 0 0 0 0 127 0" result="hardAlpha"/>
<feOffset/>
<feGaussianBlur stdDeviation="4"/>
<feComposite in2="hardAlpha" operator="out"/>
<feColorMatrix type="matrix" values="0 0 0 0 1 0 0 0 0 1 0 0 0 0 1 0 0 0 0.8 0"/>
<feBlend mode="normal" in2="BackgroundImageFix" result="effect1_dropShadow_0_101"/>
<feBlend mode="normal" in="SourceGraphic" in2="effect1_dropShadow_0_101" result="shape"/>
</filter>
<filter id="filter3_dd_0_101" x="26.8374" y="41.1075" width="53.1825" height="52.9325" filterUnits="userSpaceOnUse" color-interpolation-filters="sRGB">
<feFlood flood-opacity="0" result="BackgroundImageFix"/>
<feColorMatrix in="SourceAlpha" type="matrix" values="0 0 0 0 0 0 0 0 0 0 0 0 0 0 0 0 0 0 127 0" result="hardAlpha"/>
<feOffset/>
<feGaussianBlur stdDeviation="2"/>
<feComposite in2="hardAlpha" operator="out"/>
<feColorMatrix type="matrix" values="0 0 0 0 1 0 0 0 0 1 0 0 0 0 1 0 0 0 1 0"/>
<feBlend mode="normal" in2="BackgroundImageFix" result="effect1_dropShadow_0_101"/>
<feColorMatrix in="SourceAlpha" type="matrix" values="0 0 0 0 0 0 0 0 0 0 0 0 0 0 0 0 0 0 127 0" result="hardAlpha"/>
<feOffset dy="4"/>
<feGaussianBlur stdDeviation="4"/>
<feComposite in2="hardAlpha" operator="out"/>
<feColorMatrix type="matrix" values="0 0 0 0 1 0 0 0 0 1 0 0 0 0 1 0 0 0 1 0"/>
<feBlend mode="normal" in2="effect1_dropShadow_0_101" result="effect2_dropShadow_0_101"/>
<feBlend mode="normal" in="SourceGraphic" in2="effect2_dropShadow_0_101" result="shape"/>
</filter>
<linearGradient id="paint0_linear_0_101" x1="69.2314" y1="4.00005" x2="69.2314" y2="88.6774" gradientUnits="userSpaceOnUse">
<stop stop-color="#959595"/>
<stop offset="1" stop-color="#605F60"/>
</linearGradient>
<linearGradient id="paint1_linear_0_101" x1="53.4289" y1="35.8745" x2="53.4289" y2="91.2732" gradientUnits="userSpaceOnUse">
<stop stop-color="#959595"/>
<stop offset="1" stop-color="#605F60"/>
</linearGradient>
</defs>
</svg>
